Coordinates
version=1
nRows=37
nColumns=34
inDegrees=no

Units are S.I. units (second, meters, Newtons, ...)
If the header above contains a line with 'inDegrees', this indicates whether rotational values are in degrees (yes) or radians (no).

endheader
time	pelvis_tilt	pelvis_list	pelvis_rotation	pelvis_tx	pelvis_ty	pelvis_tz	hip_flexion_r	hip_adduction_r	hip_rotation_r	knee_angle_r	ankle_angle_r	subtalar_angle_r	mtp_angle_r	hip_flexion_l	hip_adduction_l	hip_rotation_l	knee_angle_l	ankle_angle_l	subtalar_angle_l	mtp_angle_l	lumbar_extension	lumbar_bending	lumbar_rotation	arm_flex_r	arm_add_r	arm_rot_r	elbow_flex_r	pro_sup_r	arm_flex_l	arm_add_l	arm_rot_l	elbow_flex_l	pro_sup_l
1.49	-0.131216	-0.0333249	0.059757	-0.295996	0.799743	-0.573749	1.07293	-0.0995695	-0.120246	1.60393	0.574355	-0.148308	-0.0278926	1.08088	-0.0861926	0.0163975	1.60817	0.618421	-0.233542	-0.0237823	-0.583369	0.00918478	0.0516756	1.08637	-0.532971	0.195387	1.32611	1.56118	0.93259	-0.34855	0.173596	1.50178	1.48069
1.5	-0.135421	-0.0315872	0.0659372	-0.293739	0.812552	-0.574386	1.04959	-0.0994425	-0.120635	1.56286	0.560642	-0.157392	-0.0279024	1.05749	-0.0827374	0.0122789	1.56595	0.606932	-0.232556	-0.023783	-0.566681	0.0106921	0.0397303	1.16073	-0.560307	0.216622	1.40621	1.56038	1.02352	-0.387021	0.211217	1.54787	1.46999
1.51	-0.140513	-0.0299869	0.072067	-0.291089	0.826203	-0.575055	1.02505	-0.0997641	-0.122012	1.51875	0.544922	-0.167328	-0.0279123	1.03295	-0.0809619	0.00653394	1.5205	0.594054	-0.230685	-0.0237837	-0.548066	0.0121383	0.0272796	1.24153	-0.586989	0.239239	1.48198	1.55894	1.1203	-0.426185	0.250558	1.5924	1.46034
1.52	-0.146294	-0.0287257	0.0780223	-0.287951	0.840829	-0.575761	0.999077	-0.100519	-0.124651	1.47134	0.526044	-0.177825	-0.0279221	1.00666	-0.0810679	-0.000950521	1.47108	0.579368	-0.227458	-0.0237844	-0.527587	0.0136002	0.01475	1.32768	-0.612715	0.263313	1.55141	1.55708	1.22155	-0.464618	0.291426	1.63471	1.4526
1.53	-0.152328	-0.0279655	0.083698	-0.284221	0.8566	-0.576509	0.971083	-0.101616	-0.128841	1.42007	0.502571	-0.188367	-0.027932	0.977716	-0.0830617	-0.0102294	1.41663	0.561888	-0.222294	-0.0237852	-0.505458	0.0151531	0.00256216	1.41745	-0.637328	0.288731	1.61273	1.55506	1.32534	-0.500918	0.333428	1.67433	1.4475
1.54	-0.158108	-0.0277147	0.0890217	-0.279827	0.87372	-0.57731	0.940089	-0.102913	-0.134891	1.36402	0.47284	-0.198132	-0.0279419	0.944869	-0.086718	-0.0213713	1.35577	0.53995	-0.214488	-0.023786	-0.482128	0.0168071	-0.00889889	1.50847	-0.660862	0.315184	1.66438	1.55315	1.42915	-0.533819	0.375969	1.71087	1.44555
1.55	-0.16292	-0.0278066	0.0939356	-0.274728	0.892373	-0.578172	0.904829	-0.104295	-0.143114	1.30189	0.435007	-0.205951	-0.0279518	0.906653	-0.0915143	-0.0345791	1.28678	0.511168	-0.203223	-0.0237868	-0.458186	0.0183608	-0.0193247	1.59783	-0.683573	0.342119	1.70519	1.55149	1.53008	-0.562324	0.418291	1.74388	1.44714
1.56	-0.166037	-0.0279361	0.0983944	-0.2689	0.912701	-0.579083	0.863972	-0.105655	-0.153905	1.23206	0.387114	-0.210316	-0.0279617	0.861659	-0.0966969	-0.0501958	1.20781	0.472556	-0.187661	-0.0237877	-0.434221	0.0194613	-0.0284391	1.68224	-0.705931	0.368771	1.73447	1.55009	1.62493	-0.585814	0.45944	1.77293	1.45245
1.57	-0.16691	-0.0277149	0.102334	-0.262369	0.934825	-0.580036	0.816388	-0.106876	-0.167787	1.1528	0.327223	-0.209477	-0.0279716	0.808834	-0.101369	-0.0686818	1.1172	0.420829	-0.167069	-0.0237886	-0.410701	0.0196925	-0.0359867	1.75833	-0.728528	0.394207	1.75211	1.54874	1.71038	-0.604161	0.498309	1.79766	1.46142
1.58	-0.165294	-0.0267493	0.105666	-0.255194	0.958775	-0.581031	0.761452	-0.107819	-0.185399	1.06256	0.253667	-0.201625	-0.0279815	0.747804	-0.104597	-0.0905614	1.01393	0.352924	-0.140995	-0.0237896	-0.387884	0.0186561	-0.0417485	1.82296	-0.751939	0.417379	1.75856	1.54703	1.78332	-0.617796	0.533732	1.81784	1.47371
1.59	-0.161342	-0.0247163	0.10829	-0.247477	0.984475	-0.582063	0.699322	-0.108344	-0.20743	0.960483	0.165443	-0.185163	-0.0279914	0.679153	-0.105525	-0.116339	0.898088	0.266677	-0.109454	-0.0237906	-0.365749	0.0160493	-0.0455867	1.87355	-0.776539	0.437193	1.75484	1.54442	1.84116	-0.627711	0.564614	1.83344	1.48858
1.6	-0.155627	-0.0214287	0.110127	-0.239374	1.01169	-0.583121	0.63114	-0.108345	-0.2345	0.846835	0.0627194	-0.159038	-0.0280013	0.604611	-0.103516	-0.146393	0.771419	0.161588	-0.0731124	-0.0237917	-0.343974	0.011732	-0.0475004	1.90828	-0.802374	0.452579	1.74237	1.54035	1.88215	-0.635376	0.590073	1.84467	1.50493
1.61	-0.149086	-0.0168814	0.111158	-0.231094	1.04003	-0.584185	0.559094	-0.10779	-0.266993	0.723458	-0.0526578	-0.123118	-0.0280112	0.52708	-0.0983	-0.18087	0.637677	0.0395056	-0.0333841	-0.0237928	-0.322009	0.00577765	-0.0476611	1.92632	-0.829124	0.462577	1.72288	1.5345	1.90561	-0.642571	0.609547	1.85195	1.52146
1.62	-0.142878	-0.0112807	0.111455	-0.222868	1.06898	-0.585246	0.486293	-0.106756	-0.304871	0.594033	-0.176799	-0.0785476	-0.0280212	0.450451	-0.0901041	-0.219586	0.502741	-0.094966	0.00759988	-0.0237939	-0.299215	-0.00151588	-0.0464045	1.92782	-0.85619	0.466412	1.69826	1.52696	1.91197	-0.651138	0.62283	1.85591	1.53693
1.63	-0.138077	-0.00508694	0.111167	-0.214895	1.09798	-0.586296	0.416458	-0.105459	-0.347482	0.464057	-0.303745	-0.027941	-0.0280311	0.379193	-0.0797054	-0.261957	0.374296	-0.234576	0.0471867	-0.0237951	-0.275067	-0.00966945	-0.0441775	1.91394	-0.882875	0.463572	1.67048	1.5182	1.9027	-0.662722	0.630007	1.8573	1.55054
1.64	-0.13542	0.00128575	0.110529	-0.207335	1.12646	-0.587352	0.353428	-0.104197	-0.393454	0.340439	-0.425964	0.024703	-0.0280411	0.317709	-0.068444	-0.306917	0.260976	-0.370247	0.0825538	-0.0237964	-0.249386	-0.0179862	-0.0414327	1.8867	-0.908579	0.453842	1.64151	1.50897	1.88005	-0.678538	0.631318	1.85693	1.56205
1.65	-0.135332	0.00728365	0.109772	-0.200386	1.15394	-0.588409	0.300477	-0.103383	-0.440666	0.23069	-0.53547	0.0744497	-0.0280511	0.269486	-0.0579542	-0.352845	0.171023	-0.492633	0.111166	-0.0237978	-0.222665	-0.0257307	-0.0385452	1.84869	-0.932941	0.437296	1.61326	1.50014	1.84664	-0.699214	0.626965	1.85566	1.57156
1.66	-0.137584	0.0124145	0.109064	-0.194349	1.18016	-0.58944	0.259756	-0.10349	-0.486412	0.141725	-0.625389	0.116247	-0.0280611	0.236381	-0.0498167	-0.397463	0.110614	-0.594109	0.131206	-0.0237992	-0.196087	-0.0322237	-0.0357364	1.80276	-0.955903	0.414229	1.58749	1.4925	1.80499	-0.724721	0.616921	1.85432	1.57938
1.67	-0.141295	0.0163991	0.108446	-0.189537	1.2052	-0.590448	0.231879	-0.104946	-0.527714	0.0785937	-0.691457	0.145963	-0.0280711	0.218192	-0.0451903	-0.437806	0.082492	-0.67043	0.141877	-0.0238007	-0.171432	-0.0369274	-0.0330401	1.75158	-0.977671	0.385062	1.5657	1.48655	1.7571	-0.754405	0.600806	1.85367	1.58578
1.68	-0.145114	0.0191297	0.1078	-0.186077	1.22927	-0.591422	0.215888	-0.108002	-0.561688	0.0435183	-0.73274	0.161295	-0.0280811	0.212846	-0.0445798	-0.470594	0.0855952	-0.721221	0.143629	-0.0238023	-0.15075	-0.0395475	-0.0303187	1.69732	-0.99857	0.350217	1.54902	1.48251	1.70421	-0.787111	0.577903	1.85429	1.59086
1.69	-0.147583	0.0206802	0.106847	-0.183965	1.25257	-0.592341	0.209614	-0.11261	-0.58595	0.0355887	-0.751353	0.162304	-0.0280912	0.217043	-0.0478055	-0.493038	0.115556	-0.749307	0.138236	-0.0238039	-0.135895	-0.0400471	-0.0273167	1.64139	-1.01886	0.310046	1.53812	1.48025	1.64674	-0.82139	0.54731	1.85651	1.59451
1.7	-0.147493	0.0212131	0.105183	-0.183061	1.27519	-0.593166	0.210282	-0.118364	-0.598878	0.0512213	-0.751439	0.15118	-0.0281012	0.227078	-0.0541438	-0.503559	0.165787	-0.759412	0.128388	-0.0238056	-0.128087	-0.0386181	-0.0237262	1.58435	-1.0386	0.264809	1.53321	1.47937	1.58445	-0.85567	0.508196	1.8604	1.59654
1.71	-0.144159	0.0208908	0.102352	-0.183121	1.29716	-0.593838	0.215165	-0.124565	-0.599807	0.0850783	-0.738053	0.131409	-0.0281113	0.239584	-0.0625914	-0.502153	0.228828	-0.756918	0.11698	-0.0238073	-0.127646	-0.0356161	-0.0192545	1.52604	-1.05755	0.214723	1.53403	1.4794	1.51677	-0.888398	0.460077	1.86567	1.59676
1.72	-0.137545	0.0198654	0.0979469	-0.18388	1.31844	-0.594307	0.222087	-0.130381	-0.589138	0.131179	-0.716307	0.106783	-0.0281214	0.252025	-0.0721082	-0.490291	0.297472	-0.746948	0.106409	-0.0238091	-0.133914	-0.0314928	-0.0137021	1.46579	-1.07516	0.16003	1.53993	1.47992	1.4431	-0.918146	0.403049	1.87173	1.59522
1.73	-0.128208	0.0182749	0.0917295	-0.185095	1.33895	-0.594538	0.229661	-0.135055	-0.568281	0.183841	-0.690799	0.0806363	-0.0281315	0.262852	-0.0817606	-0.470461	0.365525	-0.733715	0.0981647	-0.023811	-0.145403	-0.0267497	-0.00704055	1.40263	-1.09066	0.101072	1.55004	1.48068	1.36319	-0.943689	0.33791	1.87774	1.59228
1.74	-0.117122	0.0162488	0.0837242	-0.186553	1.35859	-0.594539	0.23724	-0.138073	-0.539431	0.238304	-0.665239	0.0554426	-0.0281416	0.271399	-0.0907828	-0.445566	0.428197	-0.720128	0.0927316	-0.0238129	-0.160119	-0.0219042	0.000526657	1.33565	-1.10317	0.038333	1.56339	1.48165	1.27732	-0.964083	0.266147	1.88272	1.58867
1.75	-0.105455	0.0139226	0.0742616	-0.188092	1.37728	-0.594336	0.244704	-0.139256	-0.505236	0.291	-0.642289	0.0327555	-0.0281518	0.277642	-0.0985969	-0.418378	0.48225	-0.707672	0.0897161	-0.0238148	-0.175959	-0.01744	0.00855456	1.26418	-1.11177	-0.0275314	1.57909	1.48294	1.18641	-0.978726	0.18983	1.88565	1.58546
1.76	-0.0943948	0.0114823	0.0639425	-0.189597	1.39496	-0.593982	0.252136	-0.13872	-0.468456	0.339526	-0.623573	0.0133635	-0.0281619	0.281908	-0.104839	-0.391163	0.525946	-0.696597	0.0881033	-0.0238167	-0.1911	-0.0137332	0.016418	1.18799	-1.1157	-0.095686	1.59637	1.48466	1.09202	-0.987383	0.111439	1.88561	1.58379
1.77	-0.0848304	0.00915215	0.0535279	-0.19099	1.4116	-0.593532	0.259584	-0.13678	-0.431684	0.382391	-0.609798	-0.00244266	-0.0281721	0.284674	-0.109364	-0.365478	0.558847	-0.686289	0.0865889	-0.0238187	-0.204194	-0.0109922	0.0234231	1.10739	-1.11444	-0.165132	1.6146	1.48684	0.996225	-0.990152	0.0336738	1.88181	1.58469
1.78	-0.0772198	0.00706537	0.043834	-0.192219	1.42719	-0.593043	0.266906	-0.133845	-0.397151	0.418738	-0.600902	-0.0146265	-0.0281822	0.28641	-0.11221	-0.342141	0.581511	-0.675711	0.0839259	-0.0238206	-0.21447	-0.00926961	0.0289586	1.02317	-1.10781	-0.234741	1.6333	1.48936	0.90139	-0.987402	-0.0407708	1.87365	1.58889
1.79	-0.0716793	0.00527398	0.0356064	-0.193257	1.44171	-0.592566	0.273755	-0.13031	-0.366571	0.448147	-0.596222	-0.0232769	-0.0281924	0.287489	-0.113567	-0.321324	0.595157	-0.663778	0.0792203	-0.0238226	-0.22171	-0.00845212	0.0326002	0.93656	-1.09601	-0.303303	1.65209	1.49206	0.809933	-0.979695	-0.109422	1.86073	1.59655
1.8	-0.0680707	0.0037712	0.0294187	-0.194099	1.45518	-0.592142	0.27967	-0.126509	-0.341057	0.470552	-0.594663	-0.0285736	-0.0282025	0.28816	-0.113701	-0.302734	0.601331	-0.64959	0.07212	-0.0238246	-0.226116	-0.00830455	0.0341592	0.849033	-1.07956	-0.369593	1.67058	1.49472	0.724048	-0.967707	-0.170229	1.84287	1.60717
1.81	-0.0660979	0.00251737	0.0256019	-0.194758	1.46762	-0.591805	0.284213	-0.122703	-0.321106	0.486195	-0.594894	-0.0308009	-0.0282127	0.288565	-0.112892	-0.285833	0.601629	-0.632542	0.062865	-0.0238266	-0.228148	-0.00854267	0.0336815	0.762145	-1.05922	-0.432449	1.68842	1.49719	0.645478	-0.952169	-0.221726	1.82013	1.61957
1.82	-0.0653805	0.00144239	0.0242087	-0.195255	1.47904	-0.591577	0.28707	-0.119078	-0.306657	0.495582	-0.595546	-0.0303707	-0.0282228	0.288754	-0.11139	-0.270079	0.597515	-0.612347	0.0522005	-0.0238287	-0.228363	-0.00891004	0.0314082	0.677405	-1.03585	-0.490831	1.7052	1.49949	0.575363	-0.933808	-0.263156	1.79273	1.63213
1.83	-0.0654881	0.000418651	0.0250269	-0.19562	1.48944	-0.59147	0.288104	-0.115741	-0.297178	0.499418	-0.595393	-0.0278242	-0.0282329	0.288714	-0.109404	-0.255114	0.590228	-0.589053	0.0411944	-0.0238307	-0.227304	-0.00923725	0.0277199	0.59618	-1.01034	-0.543854	1.72045	1.50179	0.51416	-0.913315	-0.294533	1.76102	1.64336
1.84	-0.0660369	-0.000639273	0.0276318	-0.195882	1.49884	-0.591484	0.287334	-0.112695	-0.291813	0.49855	-0.593493	-0.0237822	-0.0282431	0.288361	-0.107153	-0.240884	0.580753	-0.563068	0.0310202	-0.0238329	-0.225472	-0.00941284	0.0230749	0.519653	-0.983471	-0.590809	1.73373	1.50435	0.461663	-0.891312	-0.316615	1.72545	1.65229
1.85	-0.0667112	-0.00178642	0.0314483	-0.196079	1.50723	-0.5916	0.284895	-0.109849	-0.289595	0.493899	-0.589266	-0.0188347	-0.0282533	0.287573	-0.104897	-0.227673	0.569844	-0.535194	0.0227498	-0.023835	-0.223298	-0.00936454	0.017935	0.448773	-0.955931	-0.631201	1.7446	1.50757	0.417121	-0.868331	-0.330758	1.68652	1.65855
